<svg xmlns="http://www.w3.org/2000/svg" width="267.745" height="79.367" viewBox="0 0 267.745 79.367">
  <g id="Grupo_999" data-name="Grupo 999" transform="translate(-148 -152)">
    <path id="Title" d="M84.415,67V28.753h.547L111.725,67h5.981V17.679h-6.084V56.063h-.547L84.313,17.679H78.331V67Zm51.993,0V17.679h-6.152V67ZM169.67,16.517c-13.945,0-22.627,9.946-22.627,25.806,0,15.791,8.477,25.84,22.627,25.84,14.082,0,22.627-10.083,22.627-25.84C192.3,26.5,183.684,16.517,169.67,16.517Zm0,5.674c10.083,0,16.3,7.793,16.3,20.132,0,12.236-6.187,20.166-16.3,20.166-10.254,0-16.3-7.93-16.3-20.166C153.367,29.983,159.621,22.19,169.67,22.19ZM219.851,67V23.216h15.894V17.679H197.806v5.537H213.7V67Z" transform="translate(180 148)" fill="#fff"/>
    <g id="OSO1XY1" transform="translate(-42.502 -189.796)">
      <g id="g28" transform="translate(190.5 341.8)">
        <g id="g26">
          <g id="g8" transform="translate(58.078 57.67)">
            <path id="path6" d="M286.577,447.954a10.428,10.428,0,0,1-7.549-3.128,10.677,10.677,0,1,1,15.1,0,10.428,10.428,0,0,1-7.551,3.128Z" transform="translate(-275.9 -426.6)" fill="#f87000"/>
          </g>
          <g id="g12" transform="translate(0 0.68)">
            <path id="path10" d="M201.177,364.154a10.428,10.428,0,0,1-7.549-3.128,10.676,10.676,0,1,1,18.226-7.549,10.428,10.428,0,0,1-3.128,7.549,10.707,10.707,0,0,1-7.549,3.128Z" transform="translate(-190.5 -342.8)" fill="#f87000"/>
          </g>
          <path id="path14" d="M68.279,21.694a10.428,10.428,0,0,1-7.549-3.128,10.677,10.677,0,1,1,15.1,0,10.428,10.428,0,0,1-7.551,3.128Z" fill="#f87000"/>
          <path id="path22" d="M10.949,50.19A10.428,10.428,0,0,1,3.4,47.062a10.672,10.672,0,0,1,0-15.1c9-7.359,25.564.409,25.772-18.973a15.322,15.322,0,0,1,.408-6.052c.068-.2.2-.408.272-.612.2-.408.408-.748.612-1.156l.068-.068c.068-.136.2-.34.272-.476a9.63,9.63,0,0,1,1.224-1.5A10.542,10.542,0,0,1,39.577,0a10.428,10.428,0,0,1,7.549,3.128,10.713,10.713,0,0,1,0,15.1,9.631,9.631,0,0,1-1.5,1.224,1.1,1.1,0,0,1-.476.272l-.068.068a20.436,20.436,0,0,1-8.16,1.5,15.734,15.734,0,0,0-11.085,4.76c-6.744,6.146-1.9,14.715-7.476,21.009a10.161,10.161,0,0,1-7.413,3.128Z" fill="#f87000"/>
          <path id="path22-7" d="M10.951,79.1A10.428,10.428,0,0,1,3.4,75.968a10.672,10.672,0,0,1,0-15.1c9-7.359,25.564.409,25.772-18.973a15.322,15.322,0,0,1,.408-6.052c.068-.2.2-.408.272-.612.2-.408.408-.748.612-1.156l.068-.068c.068-.136.2-.34.272-.476a9.63,9.63,0,0,1,1.224-1.5A10.542,10.542,0,0,1,39.579,28.9a10.428,10.428,0,0,1,7.549,3.128,10.713,10.713,0,0,1,0,15.1,9.631,9.631,0,0,1-1.5,1.224,1.1,1.1,0,0,1-.476.272l-.068.068a20.435,20.435,0,0,1-8.16,1.5,15.734,15.734,0,0,0-11.085,4.76C19.1,61.1,23.936,69.666,18.363,75.96a10.161,10.161,0,0,1-7.413,3.128Z" fill="#f87000"/>
          <path id="path22-7-2" d="M39.519,79.363a10.428,10.428,0,0,1-7.549-3.128,10.672,10.672,0,0,1,0-15.1c9-7.359,25.564.409,25.772-18.973a15.322,15.322,0,0,1,.408-6.052c.068-.2.2-.408.272-.612.2-.408.408-.748.612-1.156l.068-.068c.068-.136.2-.34.272-.476A9.63,9.63,0,0,1,60.6,32.3a10.542,10.542,0,0,1,7.549-3.128A10.428,10.428,0,0,1,75.7,32.3a10.713,10.713,0,0,1,0,15.1,9.631,9.631,0,0,1-1.5,1.224,1.1,1.1,0,0,1-.476.272l-.068.068a20.435,20.435,0,0,1-8.16,1.5,15.734,15.734,0,0,0-11.085,4.76c-6.744,6.146-1.9,14.715-7.476,21.009a10.161,10.161,0,0,1-7.413,3.128Z" fill="#f87000"/>
        </g>
      </g>
    </g>
  </g>
</svg>
